<svg width="320" height="200" viewBox="0 0 320 200" xmlns="http://www.w3.org/2000/svg" role="img" aria-labelledby="title desc">
  <title id="title">Nava Vaibhavam preview</title>
  <desc id="desc">Vocabulary spotlight with word tiles and mnemonic sketches.</desc>
  <defs>
    <linearGradient id="bg" x1="0%" y1="0%" x2="100%" y2="100%">
      <stop offset="0%" stop-color="#1d4ed8"/>
      <stop offset="100%" stop-color="#7c3aed"/>
    </linearGradient>
    <linearGradient id="card" x1="0%" y1="0%" x2="0%" y2="100%">
      <stop offset="0%" stop-color="#eef2ff"/>
      <stop offset="100%" stop-color="#e0f2fe"/>
    </linearGradient>
  </defs>
  <rect width="320" height="200" fill="url(#bg)" rx="22"/>
  <rect x="32" y="24" width="256" height="152" rx="18" fill="url(#card)" stroke="#bfdbfe" stroke-width="2"/>
  <g font-family="'Noto Sans Devanagari', 'Noto Sans', sans-serif" font-weight="600">
    <g fill="#312e81" font-size="28">
      <text x="74" y="82">भाव</text>
      <text x="196" y="82">स्फुर</text>
    </g>
    <g fill="#6366f1" font-size="22">
      <text x="66" y="122">अर्थः</text>
      <text x="186" y="122">तेजस्</text>
    </g>
  </g>
  <g fill="none" stroke-linecap="round" stroke-width="4">
    <path d="M76 52c12-10 40-14 60-8" stroke="#60a5fa" opacity="0.6"/>
    <path d="M184 52c18-6 46-2 62 10" stroke="#a855f7" opacity="0.45"/>
  </g>
  <g stroke="#1e293b" stroke-width="3" opacity="0.35" stroke-linecap="round">
    <path d="M98 132l16 14"/>
    <path d="M210 130l-18 18"/>
    <path d="M156 146h16"/>
  </g>
  <g fill="#0f172a" opacity="0.75" font-family="'Inter', 'Segoe UI', sans-serif" font-size="12">
    <text x="80" y="152">Memory hook</text>
    <text x="186" y="152">Modern usage</text>
  </g>
  <circle cx="160" cy="26" r="18" fill="#38bdf8" opacity="0.7"/>
  <text x="160" y="32" text-anchor="middle" fill="#0f172a" font-family="'Fira Code', monospace" font-size="12">संस्कृत</text>
</svg>
