<svg width="320" height="200" viewBox="0 0 320 200" xmlns="http://www.w3.org/2000/svg" role="img" aria-labelledby="title desc">
  <title id="title">Panchaashat Peetha Rahasyam preview</title>
  <desc id="desc">An illustrated preview spread featuring temple silhouettes and highlighted Devanagari letters.</desc>
  <defs>
    <linearGradient id="bg" x1="0%" y1="0%" x2="100%" y2="100%">
      <stop offset="0%" stop-color="#312e81"/>
      <stop offset="100%" stop-color="#14b8a6"/>
    </linearGradient>
    <linearGradient id="page" x1="0%" y1="0%" x2="100%" y2="0%">
      <stop offset="0%" stop-color="#e2e8f0"/>
      <stop offset="100%" stop-color="#f8fafc"/>
    </linearGradient>
    <radialGradient id="highlight" cx="80%" cy="20%" r="45%">
      <stop offset="0%" stop-color="#f472b6" stop-opacity="0.5"/>
      <stop offset="100%" stop-color="#f472b6" stop-opacity="0"/>
    </radialGradient>
  </defs>
  <rect width="320" height="200" fill="url(#bg)" rx="22"/>
  <rect x="36" y="30" width="248" height="140" rx="18" fill="url(#page)" stroke="#cbd5f5" stroke-width="2"/>
  <path d="M92 52h62M92 76h74M92 100h58M92 124h68" stroke="#475569" stroke-width="4" stroke-linecap="round" opacity="0.4"/>
  <path d="M174 52h62M174 76h74M174 100h46M174 124h68" stroke="#64748b" stroke-width="4" stroke-linecap="round" opacity="0.4"/>
  <g fill="#0f172a" font-family="'Noto Sans Devanagari', 'Noto Sans', sans-serif" font-size="26" font-weight="600" opacity="0.75">
    <text x="96" y="94">क</text>
    <text x="132" y="128">ष</text>
    <text x="202" y="86">श</text>
    <text x="238" y="118">ठ</text>
  </g>
  <circle cx="230" cy="60" r="46" fill="url(#highlight)"/>
  <g fill="#e2e8f0">
    <path d="M66 138c10-18 32-30 54-30s44 12 54 30" fill="none" stroke="#1d4ed8" stroke-width="6" stroke-linecap="round" stroke-linejoin="round" opacity="0.55"/>
    <path d="M190 138c14-18 34-30 56-30s42 12 56 30" fill="none" stroke="#a855f7" stroke-width="6" stroke-linecap="round" stroke-linejoin="round" opacity="0.45"/>
  </g>
  <text x="160" y="170" fill="#1e293b" opacity="0.75" font-family="'Playfair Display', 'Times New Roman', serif" font-size="18" text-anchor="middle">Sacred soundscapes unveiled</text>
</svg>
