<svg width="320" height="200" viewBox="0 0 320 200" xmlns="http://www.w3.org/2000/svg" role="img" aria-labelledby="title desc">
  <title id="title">Vaamshii preview</title>
  <desc id="desc">Practice sheets showcasing mouth positioning, notes, and vowel charts.</desc>
  <defs>
    <linearGradient id="bg" x1="0%" y1="0%" x2="100%" y2="100%">
      <stop offset="0%" stop-color="#0f172a"/>
      <stop offset="100%" stop-color="#2563eb"/>
    </linearGradient>
    <linearGradient id="card" x1="0%" y1="0%" x2="0%" y2="100%">
      <stop offset="0%" stop-color="#f8fafc"/>
      <stop offset="100%" stop-color="#e2e8f0"/>
    </linearGradient>
  </defs>
  <rect width="320" height="200" fill="url(#bg)" rx="22"/>
  <rect x="32" y="26" width="256" height="148" rx="18" fill="url(#card)" stroke="#cbd5f5" stroke-width="2"/>
  <g fill="none" stroke-linecap="round">
    <path d="M74 66c14-18 38-26 64-22" stroke="#2563eb" stroke-width="4" opacity="0.45"/>
    <path d="M184 70c18-6 44-4 60 8" stroke="#38bdf8" stroke-width="4" opacity="0.5"/>
  </g>
  <g fill="none" stroke="#0f172a" stroke-width="3" opacity="0.35" stroke-linecap="round">
    <path d="M92 118l22 18"/>
    <path d="M204 116l-20 20"/>
    <path d="M142 130h40"/>
  </g>
  <g font-family="'Noto Sans Devanagari', 'Noto Sans', sans-serif" font-weight="600" fill="#1f2937">
    <text x="86" y="88" font-size="26">अ</text>
    <text x="124" y="88" font-size="26">इ</text>
    <text x="164" y="88" font-size="26">उ</text>
    <text x="204" y="88" font-size="26">ऋ</text>
    <text x="244" y="88" font-size="26">ए</text>
  </g>
  <g stroke="#6366f1" stroke-width="4" stroke-linecap="round" opacity="0.35">
    <path d="M86 108h44"/>
    <path d="M142 108h44"/>
    <path d="M198 108h44"/>
  </g>
  <circle cx="90" cy="48" r="16" fill="#e2e8f0" stroke="#1d4ed8" stroke-width="4" opacity="0.8"/>
  <path d="M88 46c4-6 12-6 16 0" fill="none" stroke="#1d4ed8" stroke-width="3" stroke-linecap="round" opacity="0.8"/>
  <path d="M90 52c4 4 12 4 16 0" fill="none" stroke="#1d4ed8" stroke-width="3" stroke-linecap="round" opacity="0.8"/>
  <text x="160" y="166" fill="#1e293b" opacity="0.75" font-family="'Inter', sans-serif" font-size="16" text-anchor="middle">Build pronunciation confidence</text>
</svg>
